<svg viewBox="0 0 24 24" fill="none"
    xmlns="http://www.w3.org/2000/svg">
    <path d="M23.5252 12.276C23.5252 11.4603 23.4591 10.6402 23.318 9.8377H11.9996V14.4585H18.4811C18.2121 15.9488 17.3479 17.2672 16.0825 18.1049V21.1032H19.9493C22.2201 19.0132 23.5252 15.9268 23.5252 12.276Z" fill="#4285F4"/>
    <path d="M11.9996 24C15.2359 24 17.9652 22.9374 19.9538 21.1032L16.0869 18.1049C15.0111 18.8368 13.6222 19.2513 12.004 19.2513C8.87348 19.2513 6.21915 17.1393 5.26677 14.2998H1.27646V17.3906C3.3135 21.4427 7.46254 24 11.9996 24Z" fill="#34A853"/>
    <path d="M5.26236 14.2998C4.75971 12.8095 4.75971 11.1957 5.26236 9.70542V6.61458H1.27646C-0.425486 10.0052 -0.425486 14 1.27646 17.3906L5.26236 14.2998Z" fill="#FBBC04"/>
    <path d="M11.9996 4.7495C13.7104 4.72304 15.3638 5.36679 16.6028 6.54845L20.0287 3.12251C17.8594 1.08547 14.9802 -0.0344648 11.9996 0.000808639C7.46254 0.000808639 3.3135 2.55814 1.27646 6.61458L5.26236 9.70542C6.21033 6.8615 8.86907 4.7495 11.9996 4.7495Z" fill="#EA4335"/>
</svg>
